# xmcd
#
# Track frame offsets:
#	150
#	24287
#	47737
#	71870
#	88972
#	116475
#	132125
#	145600
#	161717
#	185012
#	200212
#	216105
#	239600
#	253502
#	265270
#
# Disc length: 3704 seconds
#
# Revision: 0
# Processed by: cddbd v1.5.2PL0 Copyright (c) Steve Scherf et al.
# Submitted via: dBpowerAMP V4.0
#
DISCID=e50e760f
DTITLE=nejat alp - arkadasým
DYEAR=2006
DGENRE=Instrumental Pop
TTITLE0=nejat alp
TTITLE1=nejat alp
TTITLE2=nejat apl
TTITLE3=najat alp
TTITLE4=nejat alp
TTITLE5=nejat alp
TTITLE6=nejat alp
TTITLE7=nejat alp
TTITLE8=nejat alp
TTITLE9=nejat alp
TTITLE10=nejat alp
TTITLE11=nejat alp
TTITLE12=nejat alp
TTITLE13=nejat alp nejat alp
TTITLE14=nejat alp
EXTD=
EXTT0=
EXTT1=
EXTT2=
EXTT3=
EXTT4=
EXTT5=
EXTT6=
EXTT7=
EXTT8=
EXTT9=
EXTT10=
EXTT11=
EXTT12=
EXTT13=
EXTT14=
PLAYORDER=
